Coordinates
version=1
nRows=4
nColumns=63
inDegrees=yes

Units are S.I. units (second, meters, Newtons, ...)
If the header above contains a line with 'inDegrees', this indicates whether rotational values are in degrees (yes) or radians (no).

endheader
time	pelvis_tilt	pelvis_list	pelvis_rotation	pelvis_tx	pelvis_ty	pelvis_tz	hip_flexion_r	hip_adduction_r	hip_rotation_r	knee_angle_r	knee_angle_r_beta	ankle_angle_r	subtalar_angle_r	mtp_angle_r	hip_flexion_l	hip_adduction_l	hip_rotation_l	knee_angle_l	knee_angle_l_beta	ankle_angle_l	subtalar_angle_l	mtp_angle_l	L5_S1_Flex_Ext	L5_S1_Lat_Bending	L5_S1_axial_rotation	L4_L5_Flex_Ext	L4_L5_Lat_Bending	L4_L5_axial_rotation	L3_L4_Flex_Ext	L3_L4_Lat_Bending	L3_L4_axial_rotation	L2_L3_Flex_Ext	L2_L3_Lat_Bending	L2_L3_axial_rotation	L1_L2_Flex_Ext	L1_L2_Lat_Bending	L1_L2_axial_rotation	L1_T12_Flex_Ext	L1_T12_Lat_Bending	L1_T12_axial_rotation	Abs_r3	Abs_r2	Abs_r1	Abs_t1	Abs_t2	neck_flexion	neck_bending	neck_rotation	arm_flex_r	arm_add_r	arm_rot_r	elbow_flex_r	pro_sup_r	wrist_flex_r	wrist_dev_r	arm_flex_l	arm_add_l	arm_rot_l	elbow_flex_l	pro_sup_l	wrist_flex_l	wrist_dev_l
      2.21666667	     -1.79848538	     -0.75241357	     96.52406642	      0.22034358	      0.98235270	      0.53435492	      1.29037479	     -2.23387329	    -11.25877477	      7.46726816	      0.13032842	     21.48895221	      8.88405720	      0.00000000	      1.63596075	      1.59393977	     -8.96335620	      4.34951477	      0.07591335	     22.55672268	      8.85868003	      0.00000000	      0.28004737	     -0.37791336	      1.02745086	      0.52007597	     -0.50262477	      1.09166654	      0.46008982	     -0.91885854	      1.09166654	      0.32006614	     -0.91885854	      0.89901950	      0.26005199	     -0.77064092	      0.83480382	      0.16001907	     -0.58538779	      0.77058814	      2.00035034	     -4.27503149	      5.71437344	      0.00000000	      0.00000000	     27.88606439	     -1.47999631	     -9.02810576	     16.65338988	      1.55711556	     63.07708406	     32.19942633	     87.57274753	      0.41455592	     12.88051636	     19.76205185	     -8.33939213	     65.16857844	     34.98816859	     79.16322325	     -0.49733786	      1.90913674
      2.23333333	     -1.76261361	     -0.74066885	     98.48773234	      0.21865312	      0.98294376	      0.53321125	      0.72081801	     -2.08654144	    -12.42751370	      7.08804054	      0.12370964	     21.28327603	      8.02131164	      0.00000000	      2.19786860	      1.33788659	     -9.99529798	      5.43943849	      0.09493611	     23.37955856	     12.66713205	      0.00000000	      0.29883854	     -0.40267028	      0.64164076	      0.55497306	     -0.53555148	      0.68174331	      0.49096184	     -0.97905253	      0.68174331	      0.34154257	     -0.97905253	      0.56143567	      0.27750147	     -0.82112524	      0.52133312	      0.17075634	     -0.62373627	      0.48123057	      2.13457383	     -4.55508679	      3.56861342	      0.00000000	      0.00000000	     27.84832003	     -0.26981607	     -7.84392298	     16.81398646	      1.74281220	     67.59779490	     32.14211608	     86.82956115	      2.17193075	     15.21332535	     18.07190786	     -8.32768792	     62.19320968	     35.45105122	     73.30890003	      6.46821748	      7.24512076
      2.25000000	     -1.69496216	     -0.69922550	    100.03933736	      0.21736059	      0.98346978	      0.53185051	      0.16215341	     -1.88905979	    -13.50974178	      6.65290134	      0.11611503	     21.15677426	      7.57870084	      0.00000000	      2.52752675	      1.13352776	    -10.10910454	      6.15292173	      0.10738874	     23.79325647	     14.52574670	      0.00000000	      0.31292345	     -0.42171199	      0.37551875	      0.58113013	     -0.56087695	      0.39898867	      0.51410193	     -1.02535054	      0.39898867	      0.35764021	     -1.02535054	      0.32857891	      0.29058071	     -0.85995510	      0.30510898	      0.17880446	     -0.65323188	      0.28163906	      2.23518089	     -4.77049042	      2.08852263	      0.00000000	      0.00000000	     27.82013967	      0.77830216	     -7.06393849	     16.41250776	      1.38998206	     68.72450734	     32.74943164	     86.04784592	      5.08144835	     18.19470806	     17.30081458	     -8.15560860	     63.12995197	     34.88037167	     67.33639637	     11.13658752	      9.09516298
      2.26666667	     -1.72999506	     -0.53637312	    101.25291033	      0.21651091	      0.98406777	      0.53043081	     -0.48025702	     -1.77798389	    -14.63106606	      6.23715810	      0.10885894	     21.24470506	      7.76560566	      0.00000000	      2.53214330	      1.05498522	     -9.79527736	      6.53843874	      0.11411728	     23.89831978	     15.37518837	      0.00000000	      0.30189019	     -0.44743993	      0.26128434	      0.56064026	     -0.59509511	      0.27761461	      0.49597539	     -1.08790544	      0.27761461	      0.34503029	     -1.08790544	      0.22862380	      0.28033523	     -0.91241950	      0.21229353	      0.17250005	     -0.69308445	      0.19596326	      2.15637141	     -5.06152997	      1.45318512	      0.00000000	      0.00000000	     27.79820578	      1.30201492	     -6.92217446	     15.42826763	      0.64808714	     66.74831544	     33.66031751	     85.00493781	      7.80231375	     20.79233540	     18.33410884	     -8.24029113	     70.59849736	     34.26928956	     59.39809739	     12.83721675	      7.26594764
